<?xml version="1.0" encoding="utf-8"?>
<!-- Generator: Adobe Illustrator 22.0.0, SVG Export Plug-In . SVG Version: 6.00 Build 0)  -->
<svg version="1.1" id="Capa_1" xmlns="http://www.w3.org/2000/svg" xmlns:xlink="http://www.w3.org/1999/xlink" x="0px" y="0px"
	 viewBox="0 0 1200 1080" style="enable-background:new 0 0 1200 1080;" xml:space="preserve">
<style type="text/css">
	.st0{clip-path:url(#SVGID_2_);}
	.st1{fill:#336825;}
	.st2{fill:#00BCC1;}
</style>
<g>
	<g>
		<defs>
			<path id="SVGID_1_" d="M230.8,818.9c0,0-245.7-271.1,213.9-451.1V228.3H40.6v533.8L230.8,818.9z"/>
		</defs>
		<clipPath id="SVGID_2_">
			<use xlink:href="#SVGID_1_"  style="overflow:visible;"/>
		</clipPath>
		<g class="st0">
			<g>
				<g>
					<path class="st1" d="M208.6,316.8L208.6,316.8c-2.1,0-3.7,1.7-3.7,3.7c0,2,1.7,3.7,3.7,3.7c2,0,3.7-1.7,3.7-3.7
						C212.3,318.5,210.7,316.8,208.6,316.8z"/>
				</g>
			</g>
			<g>
				<g>
					<path class="st1" d="M275.3,316.8L275.3,316.8c-2.1,0-3.7,1.7-3.7,3.7c0,2,1.7,3.7,3.7,3.7c2,0,3.7-1.7,3.7-3.7
						C279,318.5,277.3,316.8,275.3,316.8z"/>
				</g>
			</g>
			<g>
				<g>
					<path class="st1" d="M275.3,331.6L275.3,331.6c-2.1,0-3.7,1.7-3.7,3.7c0,2,1.7,3.7,3.7,3.7c2,0,3.7-1.7,3.7-3.7
						C279,333.3,277.3,331.6,275.3,331.6z"/>
				</g>
			</g>
			<g>
				<g>
					<path class="st1" d="M275.3,302L275.3,302c-2.1,0-3.7,1.7-3.7,3.7s1.7,3.7,3.7,3.7c2,0,3.7-1.7,3.7-3.7S277.3,302,275.3,302z"
						/>
				</g>
			</g>
			<g>
				<g>
					<path class="st1" d="M208.6,331.6L208.6,331.6c-2.1,0-3.7,1.7-3.7,3.7c0,2,1.7,3.7,3.7,3.7c2,0,3.7-1.7,3.7-3.7
						C212.3,333.3,210.7,331.6,208.6,331.6z"/>
				</g>
			</g>
			<g>
				<g>
					<path class="st1" d="M208.6,302L208.6,302c-2.1,0-3.7,1.7-3.7,3.7s1.7,3.7,3.7,3.7c2,0,3.7-1.7,3.7-3.7S210.7,302,208.6,302z"
						/>
				</g>
			</g>
			<g>
				<g>
					<path class="st1" d="M408.5,287.2H75c-2,0-3.7,1.7-3.7,3.7v429.8c0,2,1.7,3.7,3.7,3.7h333.5c2,0,3.7-1.7,3.7-3.7V290.9
						C412.2,288.8,410.5,287.2,408.5,287.2z M404.8,717H78.7V294.6h326.1V717z"/>
				</g>
			</g>
			<g>
				<g>
					<path class="st1" d="M371.4,264.9H112.1c-2,0-3.7,1.7-3.7,3.7c0,2,1.7,3.7,3.7,3.7h259.4c2,0,3.7-1.7,3.7-3.7
						C375.1,266.6,373.5,264.9,371.4,264.9z"/>
				</g>
			</g>
			<g>
				<g>
					<path class="st1" d="M402.7,280.2l-29.6-14.8c-1.8-0.9-4.1-0.2-5,1.7c-0.9,1.8-0.2,4.1,1.7,5l29.6,14.8
						c0.5,0.3,1.1,0.4,1.7,0.4c1.4,0,2.7-0.8,3.3-2C405.3,283.3,404.6,281.1,402.7,280.2z"/>
				</g>
			</g>
			<g>
				<g>
					<path class="st1" d="M115.4,267c-0.9-1.8-3.1-2.6-5-1.7l-29.6,14.8c-1.8,0.9-2.6,3.1-1.7,5c0.7,1.3,2,2,3.3,2
						c0.6,0,1.1-0.1,1.7-0.4l29.6-14.8C115.5,271,116.3,268.8,115.4,267z"/>
				</g>
			</g>
			<g>
				<g>
					<path class="st1" d="M112.1,724.4c-2,0-3.7,1.7-3.7,3.7c0,2-1.7,3.7-3.7,3.7c-2,0-3.7-1.7-3.7-3.7c0-2-1.7-3.7-3.7-3.7
						c-2,0-3.7,1.7-3.7,3.7c0,6.1,5,11.1,11.1,11.1c6.1,0,11.1-5,11.1-11.1C115.8,726.1,114.1,724.4,112.1,724.4z"/>
				</g>
			</g>
			<g>
				<g>
					<path class="st1" d="M386.2,724.4c-2,0-3.7,1.7-3.7,3.7c0,2-1.7,3.7-3.7,3.7c-2,0-3.7-1.7-3.7-3.7c0-2-1.7-3.7-3.7-3.7
						c-2,0-3.7,1.7-3.7,3.7c0,6.1,5,11.1,11.1,11.1c6.1,0,11.1-5,11.1-11.1C389.9,726.1,388.3,724.4,386.2,724.4z"/>
				</g>
			</g>
			<g>
				<g>
					<path class="st1" d="M393.7,657.7H89.8c-2,0-3.7,1.7-3.7,3.7s1.7,3.7,3.7,3.7h303.8c2,0,3.7-1.7,3.7-3.7
						S395.7,657.7,393.7,657.7z"/>
				</g>
			</g>
			<g>
				<g>
					<path class="st1" d="M89.8,687.4c-2,0-3.7,1.7-3.7,3.7v15.3c0,2,1.7,3.7,3.7,3.7c2,0,3.7-1.7,3.7-3.7v-15.3
						C93.5,689,91.8,687.4,89.8,687.4z"/>
				</g>
			</g>
			<g>
				<g>
					<path class="st1" d="M97.2,679.9c-6.1,0-11.1,5-11.1,11.1c0,2,1.7,3.7,3.7,3.7c2,0,3.7-1.7,3.7-3.7c0-2,1.7-3.7,3.7-3.7
						c2,0,3.7-1.7,3.7-3.7C100.9,681.6,99.3,679.9,97.2,679.9z"/>
				</g>
			</g>
			<g>
				<g>
					<path class="st1" d="M171.3,679.9H97.2c-2,0-3.7,1.7-3.7,3.7c0,2,1.7,3.7,3.7,3.7h74.1c2,0,3.7-1.7,3.7-3.7
						C175,681.6,173.4,679.9,171.3,679.9z"/>
				</g>
			</g>
			<g>
				<g>
					<path class="st1" d="M178.7,687.4c-2,0-3.7,1.7-3.7,3.7v15.3c0,2,1.7,3.7,3.7,3.7c2,0,3.7-1.7,3.7-3.7v-15.3
						C182.4,689,180.8,687.4,178.7,687.4z"/>
				</g>
			</g>
			<g>
				<g>
					<path class="st1" d="M171.3,679.9c-2,0-3.7,1.7-3.7,3.7c0,2,1.7,3.7,3.7,3.7c2,0,3.7,1.7,3.7,3.7c0,2,1.7,3.7,3.7,3.7
						c2,0,3.7-1.7,3.7-3.7C182.4,684.9,177.4,679.9,171.3,679.9z"/>
				</g>
			</g>
			<g>
				<g>
					<path class="st1" d="M219.7,554L219.7,554c-2.1,0-3.7,1.7-3.7,3.7c0,2,1.7,3.7,3.7,3.7c2,0,3.7-1.7,3.7-3.7
						C223.4,555.6,221.8,554,219.7,554z"/>
				</g>
			</g>
			<g>
				<g>
					<path class="st1" d="M208.6,539.1L208.6,539.1c-2.1,0-3.7,1.7-3.7,3.7s1.7,3.7,3.7,3.7c2,0,3.7-1.7,3.7-3.7
						S210.7,539.1,208.6,539.1z"/>
				</g>
			</g>
			<g>
				<g>
					<path class="st1" d="M230.8,531.7L230.8,531.7c-2.1,0-3.7,1.7-3.7,3.7c0,2,1.7,3.7,3.7,3.7c2,0,3.7-1.7,3.7-3.7
						C234.5,533.4,232.9,531.7,230.8,531.7z"/>
				</g>
			</g>
			<g>
				<g>
					<path class="st1" d="M241.7,390.9c-61.3,0-111.2,49.9-111.2,111.2c0,61.3,49.9,111.2,111.2,111.2s111.2-49.9,111.2-111.2
						C352.9,440.8,303,390.9,241.7,390.9z M241.7,605.8c-57.2,0-103.7-46.5-103.7-103.7c0-57.2,46.5-103.7,103.7-103.7
						s103.7,46.5,103.7,103.7C345.5,559.3,298.9,605.8,241.7,605.8z"/>
				</g>
			</g>
			<g>
				<g>
					<path class="st1" d="M320.6,534.7c-1.8-0.9-4.1-0.1-4.9,1.8c-13.4,28.6-42.4,47.1-73.9,47.1c-44.9,0-81.5-36.6-81.5-81.5
						s36.6-81.5,81.5-81.5c31.5,0,60.6,18.5,73.9,47.1c0.9,1.9,3.1,2.6,4.9,1.8c1.9-0.9,2.7-3.1,1.8-4.9
						c-14.6-31.2-46.2-51.3-80.6-51.3c-49,0-88.9,39.9-88.9,88.9c0,49,39.9,88.9,88.9,88.9c34.4,0,66-20.2,80.6-51.3
						C323.2,537.8,322.4,535.6,320.6,534.7z"/>
				</g>
			</g>
			<g>
				<g>
					<path class="st1" d="M320.7,534.8c-12.1-6.5-19.7-19-19.7-32.7c0-13.6,7.4-26.1,19.4-32.6c1.8-1,2.5-3.2,1.5-5
						c-1-1.8-3.2-2.5-5-1.5c-14.4,7.8-23.3,22.8-23.3,39.1c0,16.5,9.1,31.5,23.6,39.3c0.6,0.3,1.2,0.4,1.7,0.4c1.3,0,2.6-0.7,3.3-2
						C323.2,538,322.5,535.8,320.7,534.8z"/>
				</g>
			</g>
			<g>
				<g>
					<path class="st1" d="M285.1,495.8c-1.4-1.4-3.8-1.4-5.2,0l-4.8,4.8l-4.8-4.8c-1.4-1.4-3.8-1.4-5.2,0l-4.8,4.8l-4.8-4.8
						c-1.4-1.4-3.8-1.4-5.2,0l-4.8,4.8l-4.8-4.8c-1.4-1.4-3.8-1.4-5.2,0l-4.8,4.8l-4.8-4.8c-1.4-1.4-3.8-1.4-5.2,0l-4.8,4.8
						l-4.8-4.8c-0.7-0.7-1.6-0.9-2.7-1.1c-1,0-1.9,0.4-2.6,1.2l-4.5,4.7l-5.1-4.8c-1.5-1.4-3.8-1.4-5.2,0.1l-4.8,4.8l-4.8-4.8
						c-1.4-1.4-3.8-1.4-5.2,0l-7.4,7.4c-1.4,1.4-1.4,3.8,0,5.2c1.4,1.4,3.8,1.4,5.2,0l4.8-4.8l4.8,4.8c1.4,1.4,3.8,1.4,5.2,0
						l4.8-4.8l5.1,4.9c0.7,0.7,1.7,1.1,2.6,1c1,0,1.9-0.4,2.6-1.1l4.4-4.7l4.7,4.7c1.4,1.4,3.8,1.4,5.2,0l4.8-4.8l4.8,4.8
						c1.4,1.4,3.8,1.4,5.2,0l4.8-4.8l4.8,4.8c1.4,1.4,3.8,1.4,5.2,0l4.8-4.8l4.8,4.8c1.4,1.4,3.8,1.4,5.2,0l4.8-4.8l4.8,4.8
						c0.7,0.7,1.7,1.1,2.6,1.1c0.9,0,1.9-0.4,2.6-1.1l7.4-7.4C286.6,499.6,286.6,497.2,285.1,495.8z"/>
				</g>
			</g>
			<g>
				<g>
					<path class="st1" d="M393.7,346.5H89.8c-2,0-3.7,1.7-3.7,3.7s1.7,3.7,3.7,3.7h303.8c2,0,3.7-1.7,3.7-3.7
						S395.7,346.5,393.7,346.5z"/>
				</g>
			</g>
			<g>
				<g>
					<path class="st1" d="M171.3,302c-2,0-3.7,1.7-3.7,3.7v44.5c0,2,1.7,3.7,3.7,3.7s3.7-1.7,3.7-3.7v-44.5
						C175,303.7,173.4,302,171.3,302z"/>
				</g>
			</g>
			<g>
				<g>
					<path class="st1" d="M141.7,302c-2,0-3.7,1.7-3.7,3.7c0,6.1-5,11.1-11.1,11.1c-6.1,0-11.1-5-11.1-11.1c0-2-1.7-3.7-3.7-3.7
						c-2,0-3.7,1.7-3.7,3.7c0,10.2,8.3,18.5,18.5,18.5c10.2,0,18.5-8.3,18.5-18.5C145.4,303.7,143.7,302,141.7,302z"/>
				</g>
			</g>
			<g>
				<g>
					<path class="st1" d="M241.7,302c-10.2,0-18.5,8.3-18.5,18.5s8.3,18.5,18.5,18.5c10.2,0,18.5-8.3,18.5-18.5S252,302,241.7,302z
						 M241.7,331.6c-6.1,0-11.1-5-11.1-11.1c0-6.1,5-11.1,11.1-11.1c6.1,0,11.1,5,11.1,11.1C252.9,326.7,247.9,331.6,241.7,331.6z"
						/>
				</g>
			</g>
			<g>
				<g>
					<path class="st1" d="M319.5,316.8c-6.1,0-11.1,5-11.1,11.1c0,6.1,5,11.1,11.1,11.1c6.1,0,11.1-5,11.1-11.1
						C330.7,321.8,325.7,316.8,319.5,316.8z M319.5,331.6c-2,0-3.7-1.7-3.7-3.7c0-2,1.7-3.7,3.7-3.7c2,0,3.7,1.7,3.7,3.7
						C323.3,330,321.6,331.6,319.5,331.6z"/>
				</g>
			</g>
			<g>
				<g>
					<path class="st1" d="M349.2,316.8c-6.1,0-11.1,5-11.1,11.1c0,6.1,5,11.1,11.1,11.1c6.1,0,11.1-5,11.1-11.1
						C360.3,321.8,355.3,316.8,349.2,316.8z M349.2,331.6c-2,0-3.7-1.7-3.7-3.7c0-2,1.7-3.7,3.7-3.7c2,0,3.7,1.7,3.7,3.7
						C352.9,330,351.2,331.6,349.2,331.6z"/>
				</g>
			</g>
			<g>
				<g>
					<path class="st1" d="M378.8,316.8c-6.1,0-11.1,5-11.1,11.1c0,6.1,5,11.1,11.1,11.1c6.1,0,11.1-5,11.1-11.1
						C389.9,321.8,385,316.8,378.8,316.8z M378.8,331.6c-2,0-3.7-1.7-3.7-3.7c0-2,1.7-3.7,3.7-3.7c2,0,3.7,1.7,3.7,3.7
						C382.5,330,380.9,331.6,378.8,331.6z"/>
				</g>
			</g>
			<g>
				<g>
					<path class="st1" d="M386.2,302h-74.1c-2,0-3.7,1.7-3.7,3.7s1.7,3.7,3.7,3.7h74.1c2,0,3.7-1.7,3.7-3.7S388.3,302,386.2,302z"/>
				</g>
			</g>
		</g>
	</g>
	<g>
		<path class="st1" d="M346.2,626.1V477.8h9.7v139.4h46.6v8.9H346.2z"/>
		<path class="st1" d="M431.4,593.3l-7.4,32.8H415l32.4-148.5h14.2l33.1,148.5H485l-7.4-32.8H431.4z M432.8,584.8h43.2l-21.8-96
			L432.8,584.8z"/>
		<path class="st1" d="M512.1,477.8l30.1,137.1l30.1-137.1h9.1l-32.2,148.3h-14.4l-32.6-148.3H512.1z"/>
		<path class="st1" d="M605.1,593.3l-7.4,32.8h-8.9l32.4-148.5h14.2l33.1,148.5h-9.7l-7.4-32.8H605.1z M606.6,584.8h43.2l-21.8-96
			L606.6,584.8z"/>
		<path class="st1" d="M778.7,513.6v3.2h-9.3V513c0-15.7-5.9-27.5-22-27.5c-16.1,0-22,11.7-22,27.3c0,36,53.6,36.7,53.6,77.6
			c0,21.4-9.3,37.1-32,37.1s-32-15.7-32-37.1v-7.6h9.3v8.3c0,15.9,6.1,27.3,22.5,27.3c16.3,0,22.5-11.4,22.5-27.3
			c0-35.6-53.6-36.2-53.6-77.6c0-22.2,9.7-36.7,31.6-36.9C769.6,476.6,778.7,492.2,778.7,513.6z"/>
		<path class="st1" d="M844.8,546.5v8.9h-40.5v61.9H853v8.9h-58.5V477.8H853v8.9h-48.7v59.8H844.8z"/>
		<path class="st1" d="M932.3,514.1v12.3H923v-12.9c0-15.9-6.1-28-22.5-28c-16.3,0-22.5,12.1-22.5,28v77.1
			c0,15.9,6.1,27.8,22.5,27.8c16.3,0,22.5-11.9,22.5-27.8V573h9.3v16.9c0,21.4-9.3,37.5-32,37.5s-32-16.1-32-37.5v-75.9
			c0-21.4,9.3-37.5,32-37.5S932.3,492.7,932.3,514.1z"/>
		<path class="st1" d="M947.6,514.1c0-21.6,10-37.5,32.4-37.5c22.9,0,32.8,15.9,32.8,37.5v75.9c0,21.6-10,37.5-32.8,37.5
			c-22.5,0-32.4-15.9-32.4-37.5V514.1z M957.3,590.6c0,16.1,6.4,28,22.7,28c16.5,0,23.1-11.9,23.1-28v-77.1c0-16.1-6.6-28-23.1-28
			c-16.3,0-22.7,11.9-22.7,28V590.6z"/>
	</g>
	<g>
		<path class="st1" d="M380.8,735.3h43.4V764h-43.4V823h54.6v28.7h-86.2V650.5h86.2v28.7h-54.6V735.3z"/>
		<path class="st1" d="M560.4,650.5l-33.1,97.7l35.4,103.5h-33.3l-25.9-79.6l-26.2,79.6h-29.6l35.4-103.5l-33.1-97.7h32.8l23.9,74.2
			l24.4-74.2H560.4z"/>
		<path class="st1" d="M672.3,700.2v26.2c0,32.2-15.5,49.7-47.1,49.7h-14.9v75.6h-31.6V650.5h46.6
			C656.7,650.5,672.3,668.1,672.3,700.2z M610.2,679.3v68.1h14.9c10.1,0,15.5-4.6,15.5-19v-30.2c0-14.4-5.5-19-15.5-19H610.2z"/>
		<path class="st1" d="M753,851.7c-1.7-5.2-2.9-8.3-2.9-24.7v-31.6c0-18.7-6.3-25.6-20.7-25.6h-10.9v81.9h-31.6V650.5h47.7
			c32.8,0,46.8,15.2,46.8,46.3v15.8c0,20.7-6.6,34.2-20.7,40.8c15.8,6.6,21,21.8,21,42.8v31c0,9.8,0.3,17,3.4,24.4H753z
			 M718.5,679.3v61.8h12.4c11.8,0,19-5.2,19-21.3V700c0-14.4-4.9-20.7-16.1-20.7H718.5z"/>
		<path class="st1" d="M834.1,735.3h43.4V764h-43.4V823h54.6v28.7h-86.2V650.5h86.2v28.7h-54.6V735.3z"/>
		<path class="st1" d="M1013.7,650.5l-33.1,97.7l35.4,103.5h-33.3l-25.9-79.6l-26.2,79.6h-29.6l35.4-103.5l-33.1-97.7h32.8
			l23.9,74.2l24.4-74.2H1013.7z"/>
	</g>
	<path class="st1" d="M219.7,805.3c0,0-111.7-139.1-11.1-277.6S460.3,355.2,592,339C592,339,79.7,435.6,219.7,805.3z"/>
	<path class="st2" d="M608.2,337.8c0,0-455.4,89.8-395.9,394C212.3,731.8,171.3,461.1,608.2,337.8z"/>
	<g>
		<path class="st2" d="M1018.1,749.2c13.1-32.3,46.1-44.7,42.9-67.5C1056.9,651.9,1003.7,693.1,1018.1,749.2z"/>
		<path class="st2" d="M1070.7,773.7c37.1-4.4,59.3,28.8,81.2,18C1180.4,777.7,1122.2,740.6,1070.7,773.7z"/>
		<path class="st2" d="M1014,796.9c31.7-41.5,86.6-31.5,97.1-64C1124.7,690.7,1030.9,712.9,1014,796.9z"/>
		<path class="st2" d="M1035,795.4c38.6,8.4,50.5,33.3,73.1,24.5C1135.5,809.2,1085.7,769.9,1035,795.4z"/>
	</g>
</g>
</svg>
